<?xml version="1.0" encoding="utf-8"?>
<svg version="1.1" xmlns="http://www.w3.org/2000/svg" width="1920" height="500">
  <path d="M0 0 C633.6 0 1267.2 0 1920 0 C1920 356.4 1920 712.8 1920 1080 C1286.4 1080 652.8 1080 0 1080 C0 723.6 0 367.2 0 0 Z " fill="none" transform="translate(0,0)"/>
  <path d="M 697.192 30.088 C 727.882 30.088 758.572 30.088 790.192 30.088 C 790.522 91.798 790.852 153.508 791.192 217.088 C 794.492 213.788 797.792 210.488 801.192 207.088 C 827.407 186.815 858.746 181.27 891.312 184.517 C 914.532 187.522 936.422 198.092 954.192 213.088 C 955.082 213.841 955.982 214.593 956.902 215.369 C 983.062 238.195 999.222 270.712 1003.19 305.088 C 1003.51 310.507 1003.58 315.911 1003.57 321.338 C 1003.56 322.077 1003.56 322.816 1003.56 323.577 C 1003.4 365.271 989.062 401.22 959.562 430.721 C 931.782 456.413 897.122 465.577 860.046 464.31 C 845.55 463.474 832.056 458.586 819.192 452.088 C 818.273 451.628 817.354 451.167 816.407 450.693 C 805.979 444.959 798.262 436.514 791.192 427.088 C 790.862 436.328 790.532 445.568 790.192 455.088 C 759.502 455.088 728.812 455.088 697.192 455.088 C 697.192 314.838 697.192 174.588 697.192 30.088 Z" fill="#000000"/>
  <path d="M 1300.78 221.445 C 1320.38 238.514 1333.91 258.409 1341.57 283.275 C 1341.8 284.046 1342.04 284.816 1342.29 285.61 C 1345.77 297.653 1346.54 309.817 1346.51 322.274 C 1346.5 324.52 1346.53 326.765 1346.55 329.012 C 1346.71 364.902 1330.9 396.769 1306.19 422.088 C 1285.74 442.285 1258.36 455.179 1230.33 460.666 C 1228.93 460.942 1227.53 461.234 1226.13 461.541 C 1181.98 471.158 1132.22 463.091 1093.5 440.217 C 1062.46 420.244 1040.39 390.725 1032.38 354.525 C 1030.36 344.559 1029.95 334.849 1029.94 324.713 C 1029.94 323.999 1029.94 323.285 1029.94 322.549 C 1029.96 311.467 1030.5 300.876 1033.19 290.088 C 1033.35 289.436 1033.51 288.784 1033.68 288.112 C 1039.29 266.164 1050.58 247.352 1066.19 231.088 C 1067.01 230.206 1067.83 229.324 1068.67 228.416 C 1089.75 206.376 1117.17 193.819 1146.65 187.624 C 1148.23 187.291 1149.8 186.946 1151.37 186.583 C 1201.72 174.995 1261.51 187.871 1300.78 221.445 Z" fill="#000000"/>
  <path d="M 539.442 183.775 C 541.343 183.767 541.343 183.767 543.283 183.758 C 568.713 183.954 593.01 191.196 611.567 209.025 C 640.906 239.881 639.521 282.754 639.395 322.444 C 639.382 327.122 639.381 331.8 639.379 336.478 C 639.373 345.299 639.356 354.12 639.336 362.942 C 639.309 374.888 639.299 386.834 639.287 398.78 C 639.268 417.55 639.228 436.319 639.192 455.088 C 608.172 455.088 577.152 455.088 545.192 455.088 C 545.166 443.712 545.14 432.336 545.114 420.615 C 545.089 413.392 545.063 406.168 545.032 398.945 C 544.983 387.49 544.939 376.034 544.921 364.579 C 544.908 356.234 544.881 347.889 544.837 339.544 C 544.815 335.131 544.799 330.718 544.8 326.305 C 544.801 322.139 544.783 317.974 544.751 313.809 C 544.742 312.291 544.741 310.773 544.746 309.256 C 544.791 295.54 543.156 281.122 534.192 270.088 C 524.491 260.632 513.005 258.832 500.02 258.839 C 487.87 259.011 476.939 263.473 468.192 272.088 C 457.527 287.049 456.061 302.762 455.987 320.674 C 455.977 322.143 455.967 323.612 455.957 325.081 C 455.93 329.05 455.909 333.018 455.889 336.986 C 455.867 341.141 455.839 345.296 455.813 349.45 C 455.763 357.309 455.718 365.167 455.675 373.026 C 455.616 383.651 455.55 394.277 455.484 404.903 C 455.38 421.631 455.287 438.359 455.192 455.088 C 424.172 455.088 393.152 455.088 361.192 455.088 C 361.192 368.298 361.192 281.508 361.192 192.088 C 392.212 192.088 423.232 192.088 455.192 192.088 C 455.522 202.978 455.852 213.868 456.192 225.088 C 458.605 221.901 458.605 221.901 461.067 218.65 C 473.553 202.623 488.777 192.586 508.192 187.088 C 509.374 186.747 510.556 186.407 511.774 186.057 C 520.946 183.91 530.059 183.806 539.442 183.775 Z" fill="#010101"/>
  <path d="M 22.192 192.088 C 52.882 192.088 83.572 192.088 115.192 192.088 C 115.218 202.9 115.244 213.713 115.27 224.853 C 115.295 231.735 115.322 238.616 115.352 245.498 C 115.401 256.402 115.445 267.306 115.463 278.21 C 115.476 286.155 115.503 294.099 115.547 302.044 C 115.569 306.242 115.585 310.44 115.584 314.638 C 114.524 348.346 114.524 348.346 127.899 378.123 C 137.521 387.664 150.95 389.343 163.819 389.337 C 175.779 389.178 188.358 386.439 197.005 377.588 C 201.17 372.41 203.142 366.334 205.192 360.088 C 205.811 358.293 205.811 358.293 206.442 356.463 C 208.581 346.835 208.356 336.882 208.397 327.069 C 208.407 325.59 208.417 324.111 208.427 322.631 C 208.454 318.648 208.475 314.666 208.495 310.683 C 208.517 306.508 208.545 302.334 208.571 298.159 C 208.621 290.269 208.666 282.378 208.709 274.488 C 208.768 263.815 208.834 253.143 208.9 242.47 C 209.003 225.676 209.097 208.882 209.192 192.088 C 239.882 192.088 270.572 192.088 302.192 192.088 C 302.353 235.087 302.353 235.087 302.387 253.221 C 302.411 265.7 302.439 278.18 302.494 290.66 C 302.534 299.752 302.559 308.845 302.568 317.937 C 302.574 322.742 302.586 327.547 302.615 332.352 C 302.898 380.461 302.898 380.461 294.442 399.713 C 294.097 400.531 293.752 401.349 293.396 402.191 C 283.015 426.003 263.079 442.858 239.291 452.525 C 204.04 466.055 159.416 468.858 122.308 461.502 C 120.205 461.09 118.1 460.736 115.985 460.396 C 94.908 456.917 73.759 450.02 57.192 436.088 C 56.26 435.317 55.328 434.546 54.368 433.752 C 43.054 423.966 36.308 412.51 30.192 399.088 C 29.78 398.198 29.367 397.309 28.942 396.392 C 20.18 375.103 21.648 351.246 21.786 328.721 C 21.812 323.904 21.814 319.086 21.819 314.268 C 21.831 305.181 21.864 296.094 21.904 287.007 C 21.957 274.702 21.979 262.397 22.002 250.092 C 22.039 230.757 22.119 211.423 22.192 192.088 Z" fill="#000000"/>
  <path d="M 1388.19 30.088 C 1419.21 30.088 1450.23 30.088 1482.19 30.088 C 1482.19 170.338 1482.19 310.588 1482.19 455.088 C 1451.17 455.088 1420.15 455.088 1388.19 455.088 C 1388.19 314.838 1388.19 174.588 1388.19 30.088 Z" fill="#020202"/>
  <path d="M 1552.19 113.088 C 1583.21 113.088 1614.23 113.088 1646.19 113.088 C 1646.19 139.488 1646.19 165.888 1646.19 193.088 C 1663.35 193.088 1680.51 193.088 1698.19 193.088 C 1698.19 218.168 1698.19 243.248 1698.19 269.088 C 1681.03 269.088 1663.87 269.088 1646.19 269.088 C 1646.19 330.468 1646.19 391.848 1646.19 455.088 C 1615.17 455.088 1584.15 455.088 1552.19 455.088 C 1552.19 393.708 1552.19 332.328 1552.19 269.088 C 1542.29 269.088 1532.39 269.088 1522.19 269.088 C 1522.19 243.678 1522.19 218.268 1522.19 192.088 C 1532.09 192.088 1541.99 192.088 1552.19 192.088 C 1552.19 166.018 1552.19 139.948 1552.19 113.088 Z" fill="#010101"/>
  <path d="M 869.192 268.088 C 870.08 268.366 870.968 268.645 871.883 268.932 C 878.267 271.192 883.143 274.623 888.192 279.088 C 888.892 279.708 889.592 280.328 890.322 280.967 C 900.962 290.958 906.732 304.414 907.362 318.971 C 907.562 337.68 904.072 353.505 891.072 367.713 C 877.693 380.326 859.472 383.665 841.688 383.369 C 826.799 382.73 812.872 376.348 802.192 366.088 C 789.631 351.591 786.157 335.955 787.192 317.088 C 788.826 300.361 796.274 286.9 809.192 276.088 C 816.098 271.282 823.014 268.014 831.192 266.088 C 831.803 265.916 832.414 265.745 833.044 265.569 C 844.383 263.03 858.306 264.545 869.192 268.088 Z" fill="#FDFDFD"/>
  <path d="M 1223.19 274.088 C 1235.51 283.769 1245.13 296.396 1247.88 312.166 C 1249.87 330.838 1247.1 347.639 1236.05 363.08 C 1226.61 374.248 1212.76 381.584 1198.19 383.088 C 1178.61 384.149 1161.21 381.178 1145.85 368.092 C 1140.14 362.759 1136.52 357.116 1133.19 350.088 C 1132.61 348.912 1132.04 347.737 1131.44 346.525 C 1125.59 330.444 1126.84 312.684 1133.48 297.064 C 1140.14 283.805 1151.39 273.507 1165.19 268.088 C 1183.48 262.358 1206.89 262.97 1223.19 274.088 Z" fill="#FDFDFD"/>
</svg>