<?xml version="1.0" encoding="utf-8"?>
<svg version="1.1" xmlns="http://www.w3.org/2000/svg" width="900" height="300">
  <path d="M 179.875 24.543 C 183.128 27.611 186.19 30.801 189.062 34.231 C 189.846 35.159 190.63 36.087 191.437 37.043 C 192.097 37.043 192.757 37.043 193.437 37.043 C 193.499 37.806 193.561 38.569 193.625 39.356 C 194.362 42.7 195.317 45.004 196.812 48.043 C 203.68 62.97 203.122 78.913 203.437 95.043 C 204.181 95.095 204.925 95.147 205.692 95.2 C 206.674 95.277 207.656 95.354 208.668 95.434 C 209.639 95.506 210.61 95.579 211.61 95.653 C 218.277 96.572 223.747 100.352 228.437 105.043 C 233.487 112.47 235.749 119.852 235.696 128.855 C 235.701 129.976 235.701 129.976 235.707 131.12 C 235.716 133.571 235.71 136.022 235.703 138.473 C 235.704 140.19 235.706 141.907 235.709 143.624 C 235.712 147.217 235.708 150.809 235.698 154.402 C 235.687 158.987 235.693 163.572 235.705 168.157 C 235.713 171.702 235.71 175.247 235.705 178.791 C 235.704 180.481 235.705 182.171 235.71 183.86 C 235.756 205 235.756 205 231.437 210.668 C 230.447 211.452 229.457 212.236 228.437 213.043 C 227.7 213.632 226.963 214.221 226.203 214.828 C 215.307 223.068 204.406 222.307 191.375 222.168 C 189.73 222.158 188.085 222.149 186.439 222.141 C 182.438 222.121 178.438 222.081 174.437 222.043 C 174.437 213.463 174.437 204.883 174.437 196.043 C 186.125 195.731 186.125 195.731 189.784 195.655 C 190.746 195.622 191.708 195.589 192.699 195.555 C 193.678 195.529 194.658 195.502 195.667 195.475 C 198.923 194.967 200.837 194.058 203.437 192.043 C 204.333 188.444 204.333 188.444 204.437 185.043 C 204.767 185.043 205.097 185.043 205.437 185.043 C 205.514 177.481 205.566 169.919 205.602 162.356 C 205.617 159.785 205.638 157.214 205.664 154.642 C 205.7 150.941 205.717 147.24 205.73 143.539 C 205.746 142.394 205.761 141.249 205.777 140.069 C 205.855 131.57 205.855 131.57 202.437 124.043 C 195.514 121.615 188.689 121.753 181.415 121.768 C 180.127 121.763 178.838 121.758 177.51 121.753 C 173.996 121.74 170.482 121.739 166.967 121.741 C 164.027 121.743 161.087 121.738 158.147 121.733 C 151.211 121.722 144.276 121.721 137.34 121.727 C 130.194 121.733 123.048 121.721 115.902 121.7 C 109.754 121.682 103.606 121.676 97.458 121.679 C 93.791 121.681 90.125 121.679 86.462 121.665 C 82.372 121.65 78.292 121.659 74.202 121.671 C 72.382 121.659 72.382 121.659 70.532 121.648 C 62.542 121.643 62.542 121.643 55.442 125.043 C 53.052 128.625 53.152 131.175 53.182 135.309 C 53.172 136.046 53.172 136.783 53.172 137.542 C 53.162 139.983 53.162 142.423 53.172 144.863 C 53.172 146.564 53.172 148.264 53.162 149.965 C 53.162 153.534 53.162 157.104 53.172 160.673 C 53.192 165.229 53.182 169.785 53.172 174.341 C 53.162 177.856 53.162 181.372 53.172 184.888 C 53.172 186.566 53.172 188.245 53.162 189.923 C 53.132 206.211 55.052 218.149 66.542 230.441 C 72.562 235.853 79.522 239.894 86.432 244.043 C 87.232 244.524 88.022 245.006 88.839 245.502 C 91.179 246.92 93.525 248.329 95.875 249.731 C 96.603 250.165 97.33 250.599 98.08 251.047 C 101.527 253.269 101.527 253.269 105.437 254.043 C 105.437 254.703 105.437 255.363 105.437 256.043 C 107.104 256.711 108.77 257.377 110.437 258.043 C 111.311 258.396 112.185 258.749 113.086 259.113 C 119.956 261.771 124.916 263.237 132.125 260.793 C 135.345 259.092 137.314 257.982 139.437 255.043 C 140.456 250.734 140.603 247.316 139.437 243.043 C 138.777 243.043 138.117 243.043 137.437 243.043 C 137.437 242.383 137.437 241.723 137.437 241.043 C 136.664 240.703 136.664 240.703 135.875 240.356 C 127.869 236.045 123.703 231.095 119.437 223.043 C 119.437 222.383 119.437 221.723 119.437 221.043 C 118.777 220.713 118.117 220.383 117.437 220.043 C 117.106 216.608 116.972 213.216 116.871 209.77 C 116.792 207.857 116.621 205.948 116.437 204.043 C 115.777 203.713 115.117 203.383 114.437 203.043 C 114.582 202.404 114.726 201.764 114.875 201.106 C 115.61 197.105 116.023 193.088 116.437 189.043 C 115.843 188.803 115.249 188.563 114.637 188.316 C 111.986 186.782 110.905 185.23 109.25 182.668 C 108.741 181.897 108.232 181.126 107.707 180.332 C 105.436 176.238 105.301 172.752 105.312 168.106 C 105.309 166.576 105.309 166.576 105.305 165.016 C 105.428 162.247 105.812 159.738 106.437 157.043 C 107.097 157.043 107.757 157.043 108.437 157.043 C 108.623 156.342 108.809 155.641 109 154.918 C 111.661 149.596 116.727 145.729 122.262 143.566 C 127.216 142.375 132.363 142.264 137.437 142.043 C 137.437 142.703 137.437 143.363 137.437 144.043 C 138.283 144.105 139.129 144.167 140 144.231 C 146.503 145.768 150.174 149.195 153.812 154.731 C 157.632 161.642 158.3 167.684 156.25 175.293 C 154.019 181.742 150.522 186.494 145.437 191.043 C 144.777 191.043 144.117 191.043 143.437 191.043 C 143.498 194.087 143.585 197.126 143.687 200.168 C 143.702 201.024 143.716 201.88 143.73 202.762 C 143.944 208.307 144.686 211.694 148.437 216.043 C 150.742 218.025 150.742 218.025 153.25 219.731 C 160.543 225.333 166.309 233.611 167.922 242.805 C 169.059 255.335 166.589 265.936 158.84 276.148 C 151.187 284.344 140.993 289.223 129.871 290.289 C 113.987 290.712 99.888 283.506 86.692 275.328 C 84.582 273.878 84.582 273.878 82.432 274.043 C 81.432 273.05 80.432 272.049 79.432 271.043 C 78.012 270.111 76.562 269.223 75.082 268.371 C 74.232 267.871 73.382 267.371 72.502 266.856 C 70.732 265.828 68.962 264.802 67.192 263.777 C 61.232 260.274 55.782 256.426 50.442 252.043 C 49.512 251.284 48.572 250.525 47.612 249.742 C 34.182 238.014 26.352 223.003 25.072 205.223 C 24.962 203.434 24.852 201.645 24.752 199.856 C 24.702 199 24.652 198.143 24.602 197.262 C 24.382 192.36 24.572 187.874 25.442 183.043 C 24.782 183.043 24.112 183.043 23.442 183.043 C 23.712 181.651 23.712 181.651 24.002 180.231 C 24.682 177.03 24.682 177.03 23.442 174.043 C 24.102 174.043 24.762 174.043 25.442 174.043 C 25.272 172.916 25.112 171.789 24.952 170.628 C 24.372 165.969 24.272 161.37 24.272 156.68 C 24.262 155.807 24.262 154.934 24.262 154.035 C 24.252 152.199 24.252 150.363 24.252 148.527 C 24.252 145.749 24.232 142.971 24.212 140.193 C 24.122 112.502 24.122 112.502 34.262 102.191 C 38.572 98.646 42.952 96.96 48.332 95.586 C 50.472 95.112 50.472 95.112 52.442 94.043 C 54.112 94.322 55.782 94.651 57.442 95.043 C 57.412 93.929 57.392 92.816 57.362 91.668 C 57.012 67.39 60.982 45.555 78.182 27.206 C 104.563 0.216 152.118 -0.954 179.875 24.543 Z M 96.125 47.231 C 87.202 57.979 85.072 70.448 85.122 84.043 C 85.112 84.983 85.092 85.922 85.072 86.891 C 85.072 87.787 85.072 88.682 85.072 89.606 C 85.072 90.411 85.072 91.217 85.062 92.047 C 85.192 92.706 85.312 93.364 85.432 94.043 C 89.115 96.495 91.882 96.316 96.133 96.273 C 97.255 96.273 97.255 96.273 98.4 96.272 C 99.978 96.269 101.557 96.261 103.135 96.249 C 105.56 96.231 107.985 96.228 110.41 96.229 C 111.943 96.224 113.475 96.218 115.008 96.211 C 116.101 96.209 116.101 96.209 117.217 96.208 C 120.615 96.475 120.615 96.475 123.437 95.043 C 123.437 95.373 123.437 95.703 123.437 96.043 C 124.572 96.043 125.706 96.043 126.875 96.043 C 142.729 96.043 158.583 96.043 174.437 96.043 C 174.555 91.793 174.625 87.544 174.687 83.293 C 174.721 82.106 174.754 80.919 174.789 79.695 C 174.904 69.202 173.117 59.44 166.437 51.043 C 166.026 50.432 165.615 49.821 165.191 49.191 C 159.563 41.618 149.958 36.925 140.988 34.336 C 124.089 32.395 108.389 34.368 96.125 47.231 Z" style="fill: rgb(0, 120, 212);"/>
  <path d="M 490.437 62.043 C 491.427 62.373 492.417 62.703 493.437 63.043 C 494.775 62.728 496.109 62.397 497.437 62.043 C 497.767 62.373 498.097 62.703 498.437 63.043 C 501.13 63.28 503.802 63.465 506.5 63.606 C 507.638 63.67 507.638 63.67 508.799 63.736 C 510.678 63.843 512.558 63.943 514.437 64.043 C 514.437 63.383 514.437 62.723 514.437 62.043 C 515.757 62.043 517.077 62.043 518.437 62.043 C 519.63 64.428 519.6 65.981 519.659 68.645 C 519.682 69.599 519.705 70.553 519.729 71.537 C 519.749 72.57 519.768 73.603 519.789 74.668 C 519.812 75.726 519.835 76.784 519.859 77.874 C 519.907 80.113 519.952 82.352 519.995 84.592 C 520.062 88.029 520.14 91.466 520.219 94.902 C 520.264 97.074 520.308 99.246 520.351 101.418 C 520.375 102.451 520.399 103.485 520.424 104.549 C 520.441 105.504 520.458 106.458 520.475 107.441 C 520.492 108.284 520.509 109.126 520.526 109.994 C 520.437 112.043 520.437 112.043 519.437 114.043 C 520.298 113.612 521.16 113.182 522.047 112.738 C 537.479 105.022 548.175 101.916 565.437 106.043 C 579.747 111.151 590.359 120.698 597.437 134.043 C 597.847 134.809 598.257 135.574 598.68 136.363 C 605.488 151.024 604.77 170.133 599.437 185.043 C 593.527 199.449 583.463 210.038 569.043 216.078 C 563.5 218.131 558.412 219.342 552.437 219.043 C 552.107 219.703 551.777 220.363 551.437 221.043 C 551.437 220.383 551.437 219.723 551.437 219.043 C 550.759 219.078 550.081 219.113 549.383 219.148 C 538.718 219.459 529.637 217.215 521.437 210.043 C 521.107 209.053 520.777 208.063 520.437 207.043 C 520.107 207.373 519.777 207.703 519.437 208.043 C 519.437 209.198 519.437 210.353 519.437 211.543 C 519.437 212.698 519.437 213.853 519.437 215.043 C 517.607 216.873 514.705 216.173 512.25 216.176 C 510.994 216.177 509.739 216.178 508.445 216.18 C 507.788 216.178 507.131 216.176 506.454 216.173 C 504.446 216.168 502.438 216.173 500.43 216.18 C 499.174 216.178 497.918 216.177 496.625 216.176 C 495.463 216.175 494.302 216.174 493.105 216.172 C 490.437 216.043 490.437 216.043 489.437 215.043 C 489.339 213.099 489.311 211.151 489.31 209.204 C 489.308 207.935 489.305 206.666 489.302 205.358 C 489.304 203.939 489.306 202.519 489.308 201.1 C 489.307 199.615 489.305 198.131 489.303 196.646 C 489.298 192.603 489.3 188.56 489.303 184.516 C 489.306 180.293 489.303 176.07 489.302 171.847 C 489.3 164.752 489.302 157.658 489.307 150.563 C 489.312 142.352 489.311 134.141 489.305 125.93 C 489.301 118.892 489.3 111.853 489.303 104.815 C 489.304 100.606 489.304 96.397 489.301 92.188 C 489.298 88.232 489.3 84.275 489.306 80.318 C 489.307 78.862 489.307 77.407 489.305 75.952 C 489.302 73.971 489.306 71.99 489.31 70.009 C 489.311 68.899 489.311 67.789 489.312 66.645 C 489.437 64.043 489.437 64.043 490.437 62.043 Z M 526.062 139.168 C 521.86 144.708 519.123 151.052 519.437 158.043 C 519.437 159.241 519.362 160.437 519.297 161.633 C 519.001 170.7 519.918 177.782 525.812 184.918 C 532.297 190.299 532.297 190.299 540.437 191.043 C 540.437 191.373 540.437 191.703 540.437 192.043 C 549.093 192.455 555.831 191.44 562.75 185.918 C 568.592 180.425 571.011 173.379 571.641 165.5 C 571.826 155.044 569.467 146.034 562.437 138.043 C 558.557 134.855 554.52 132.406 549.437 132.043 C 548.719 131.981 548.001 131.919 547.262 131.856 C 539.249 131.457 531.723 133.152 526.062 139.168 Z" style="fill: rgb(0, 120, 212);"/>
  <path d="M 704.687 118.293 C 715.064 128.109 722.15 140.693 722.773 155.145 C 723.082 173.865 720.011 189.338 706.625 203.418 C 698.616 210.967 687.786 218.043 676.437 218.043 C 676.107 218.703 675.777 219.363 675.437 220.043 C 666.72 220.187 658.124 219.763 649.437 219.043 C 649.437 218.383 649.437 217.723 649.437 217.043 C 648.589 216.951 647.741 216.86 646.867 216.766 C 643.001 215.951 639.936 214.452 636.562 212.481 C 635.947 212.122 635.332 211.763 634.699 211.394 C 621.411 203.38 614.136 190.873 609.907 176.203 C 606.655 161.243 609.071 144.256 616.984 131.219 C 617.464 130.501 617.943 129.783 618.437 129.043 C 618.979 128.232 619.52 127.421 620.078 126.586 C 628.859 114.577 641.64 107.223 656.187 104.731 C 674.193 102.541 690.805 106.406 704.687 118.293 Z M 648.437 138.043 C 648.437 139.033 648.437 140.023 648.437 141.043 C 647.823 141.283 647.208 141.523 646.574 141.77 C 642.533 144.178 641.665 148.704 640.437 153.043 C 638.659 162.793 639.155 172.435 644.437 181.043 C 647.948 186.058 651.505 189.21 657.437 191.043 C 659.79 191.248 662.005 191.243 664.359 191.086 C 666.437 191.043 666.437 191.043 668.426 191.606 C 673.14 192.631 678.212 189.767 682.187 187.418 C 690.071 179.096 692.027 169.117 691.75 158.031 C 691.277 149.669 687.674 142.613 681.437 137.043 C 670.337 129.145 659.19 130.875 648.437 138.043 Z" style="fill: rgb(0, 120, 212);"/>
  <path d="M 354.437 105.043 C 359.387 106.033 359.387 106.033 364.437 107.043 C 364.767 106.383 365.097 105.723 365.437 105.043 C 365.932 106.528 365.932 106.528 366.437 108.043 C 367.427 109.033 367.427 109.033 368.437 110.043 C 367.777 110.373 367.117 110.703 366.437 111.043 C 366.44 112.344 366.442 113.644 366.444 114.985 C 366.464 127.213 366.479 139.442 366.489 151.671 C 366.494 157.959 366.502 164.246 366.513 170.534 C 366.524 176.596 366.53 182.659 366.532 188.721 C 366.534 191.04 366.538 193.358 366.543 195.677 C 366.55 198.912 366.551 202.147 366.551 205.383 C 366.555 206.351 366.558 207.32 366.562 208.319 C 366.56 209.195 366.559 210.072 366.558 210.975 C 366.559 211.741 366.56 212.507 366.56 213.296 C 366.437 215.043 366.437 215.043 365.437 216.043 C 363.219 216.131 360.998 216.15 358.777 216.141 C 357.781 216.139 357.781 216.139 356.764 216.136 C 354.634 216.131 352.505 216.118 350.375 216.106 C 348.934 216.101 347.493 216.096 346.053 216.092 C 342.514 216.081 338.976 216.064 335.437 216.043 C 335.107 214.063 334.777 212.083 334.437 210.043 C 333.892 210.441 333.347 210.84 332.785 211.25 C 332.031 211.78 331.277 212.31 330.5 212.856 C 329.769 213.378 329.038 213.9 328.285 214.438 C 321.474 218.278 314.885 219.579 307.125 219.481 C 306.3 219.474 305.474 219.468 304.624 219.462 C 294.051 219.193 285.423 216.121 277.375 209.293 C 268.701 199.221 266.995 188.714 266.926 175.715 C 266.908 174.449 266.89 173.184 266.871 171.88 C 266.827 168.528 266.794 165.177 266.768 161.825 C 266.738 158.489 266.691 155.153 266.646 151.816 C 266.457 136.892 266.393 121.969 266.437 107.043 C 270.299 106.135 273.869 105.927 277.832 105.945 C 279.635 105.95 279.635 105.95 281.475 105.955 C 282.72 105.964 283.966 105.972 285.25 105.981 C 286.515 105.985 287.78 105.99 289.084 105.994 C 292.202 106.006 295.32 106.022 298.437 106.043 C 298.443 106.913 298.449 107.782 298.455 108.678 C 298.513 116.902 298.585 125.125 298.673 133.348 C 298.718 137.575 298.757 141.802 298.784 146.03 C 298.81 150.115 298.85 154.199 298.901 158.284 C 298.917 159.837 298.929 161.39 298.935 162.943 C 298.551 176.137 298.551 176.137 303.885 187.729 C 307.908 191.134 314.79 190.316 319.816 190.262 C 324.308 189.887 327.086 187.982 330.687 185.481 C 333.361 181.756 334.052 177.573 334.437 173.043 C 334.107 172.053 333.777 171.063 333.437 170.043 C 333.932 168.558 333.932 168.558 334.437 167.043 C 334.272 166.424 334.107 165.806 333.937 165.168 C 333.437 163.043 333.437 163.043 333.937 160.731 C 334.573 157.313 334.037 154.443 333.437 151.043 C 334.097 151.043 334.757 151.043 335.437 151.043 C 335.087 150.424 334.736 149.806 334.375 149.168 C 334.066 148.467 333.756 147.766 333.437 147.043 C 333.932 146.053 333.932 146.053 334.437 145.043 C 334.208 143.073 333.973 141.104 333.695 139.141 C 333.362 136.43 333.374 133.771 333.437 131.043 C 333.437 130.053 333.437 129.063 333.437 128.043 C 333.716 126.589 333.716 126.589 334 125.106 C 334.405 122.267 334.359 120.704 333.437 118.043 C 334.097 118.043 334.757 118.043 335.437 118.043 C 335.437 114.413 335.437 110.783 335.437 107.043 C 349.534 104.591 349.534 104.591 354.437 107.043 C 354.437 106.383 354.437 105.723 354.437 105.043 Z" style="fill: rgb(0, 120, 212);"/>
  <path d="M 468.324 115.645 C 478.921 127.671 478.731 142.566 478.633 157.645 C 478.629 159.334 478.626 161.024 478.624 162.714 C 478.617 167.129 478.597 171.545 478.575 175.96 C 478.554 180.479 478.545 184.997 478.535 189.516 C 478.514 198.358 478.48 207.201 478.437 216.043 C 474.041 216.068 469.644 216.086 465.248 216.098 C 463.751 216.103 462.254 216.11 460.757 216.118 C 458.61 216.131 456.463 216.136 454.316 216.141 C 452.376 216.149 452.376 216.149 450.397 216.157 C 447.437 216.043 447.437 216.043 446.437 215.043 C 446.365 212.78 446.441 210.533 446.5 208.27 C 446.54 205.868 446.54 205.868 445.437 203.043 C 445.582 202.342 445.726 201.641 445.875 200.918 C 446.652 196.947 446.505 193.075 446.437 189.043 C 446.437 185.931 446.894 183.101 447.437 180.043 C 446.777 179.713 446.117 179.383 445.437 179.043 C 446.097 179.043 446.757 179.043 447.437 179.043 C 446.447 175.083 446.447 175.083 445.437 171.043 C 446.097 171.043 446.757 171.043 447.437 171.043 C 447.272 169.806 447.107 168.568 446.937 167.293 C 446.373 162.362 446.399 157.504 446.5 152.547 C 446.615 150.044 446.615 150.044 445.437 148.043 C 445.355 146.785 445.272 145.527 445.187 144.231 C 444.792 140.881 444.406 140.002 442.25 137.168 C 436.69 132.968 431.907 132.596 425.133 133.371 C 420.838 134.442 418.187 136.641 415.437 140.043 C 412.477 145.426 412.312 151.548 412.34 157.583 C 412.343 158.861 412.346 160.139 412.35 161.455 C 412.356 162.467 412.356 162.467 412.362 163.499 C 412.375 165.621 412.382 167.743 412.386 169.866 C 412.398 174.362 412.417 178.859 412.437 183.356 C 412.461 188.584 412.481 193.813 412.493 199.042 C 412.5 201.137 412.512 203.231 412.525 205.326 C 412.528 206.588 412.532 207.85 412.535 209.15 C 412.54 210.266 412.546 211.383 412.551 212.533 C 412.437 215.043 412.437 215.043 411.437 216.043 C 409.146 216.131 406.852 216.15 404.558 216.141 C 403.528 216.139 403.528 216.139 402.478 216.136 C 400.277 216.131 398.076 216.118 395.875 216.106 C 394.386 216.101 392.897 216.096 391.408 216.092 C 387.751 216.081 384.094 216.064 380.437 216.043 C 380.21 214.025 379.982 212.007 379.754 209.988 C 379.524 207.969 379.524 207.969 378.437 206.043 C 379.097 206.043 379.757 206.043 380.437 206.043 C 380.275 204.914 380.112 203.785 379.944 202.622 C 379.369 197.994 379.303 193.439 379.324 188.781 C 379.324 187.893 379.324 187.004 379.323 186.088 C 379.324 183.177 379.332 180.266 379.34 177.356 C 379.342 175.327 379.343 173.298 379.344 171.269 C 379.348 165.949 379.358 160.629 379.369 155.31 C 379.379 149.873 379.384 144.437 379.389 139 C 379.399 128.348 379.416 117.695 379.437 107.043 C 383.518 106.32 387.29 105.951 391.437 106.043 C 392.427 106.043 393.417 106.043 394.437 106.043 C 395.426 106.055 396.415 106.066 397.433 106.078 C 399.137 106.092 399.137 106.092 400.875 106.106 C 402.008 106.117 403.141 106.129 404.308 106.141 C 407.618 106.148 407.618 106.148 411.437 105.043 C 411.932 109.498 411.932 109.498 412.437 114.043 C 413.15 113.561 413.863 113.079 414.598 112.582 C 432.109 101.034 452.617 101.05 468.324 115.645 Z" style="fill: rgb(0, 120, 212);"/>
  <path d="M 786.437 75.043 C 791.016 74.981 795.595 74.919 800.312 74.856 C 802.478 74.815 802.478 74.815 804.687 74.773 C 805.819 74.765 806.951 74.758 808.117 74.75 C 809.28 74.734 810.442 74.719 811.64 74.702 C 812.563 74.815 813.486 74.927 814.437 75.043 C 815.097 76.033 815.757 77.023 816.437 78.043 C 815.777 78.043 815.117 78.043 814.437 78.043 C 814.437 86.953 814.437 95.863 814.437 105.043 C 815.757 105.043 817.077 105.043 818.437 105.043 C 818.437 105.703 818.437 106.363 818.437 107.043 C 825.697 106.713 832.957 106.383 840.437 106.043 C 840.437 112.643 840.437 119.243 840.437 126.043 C 841.097 126.043 841.757 126.043 842.437 126.043 C 841.437 129.043 841.437 129.043 840.437 131.043 C 836.208 132.869 833.844 133.01 829.437 132.043 C 828.324 132.229 827.21 132.414 826.062 132.606 C 821.782 133.122 819.458 132.438 815.437 131.043 C 815.767 132.033 816.097 133.023 816.437 134.043 C 815.777 134.043 815.117 134.043 814.437 134.043 C 814.468 134.923 814.498 135.804 814.529 136.711 C 814.668 140.801 814.803 144.891 814.937 148.981 C 814.962 149.713 814.986 150.446 815.011 151.2 C 815.325 160.73 815.532 170.232 815.277 179.766 C 815.346 183.729 815.346 183.729 817.437 190.043 C 825.357 190.043 833.277 190.043 841.437 190.043 C 842.517 195.44 842.507 200.144 842.312 205.606 C 842.302 206.551 842.292 207.497 842.281 208.471 C 842.025 215.433 842.025 215.433 838.883 218.695 C 838.076 219.14 837.269 219.585 836.437 220.043 C 836.107 219.713 835.777 219.383 835.437 219.043 C 830.787 218.738 830.787 218.738 826.437 220.043 C 818.32 220 810.958 219.084 803.437 216.043 C 802.138 215.703 802.138 215.703 800.812 215.356 C 795.714 212.538 791.754 207.341 789.437 202.043 C 788.68 200.431 788.68 200.431 787.908 198.786 C 785.643 192.676 785.958 186.356 785.926 179.918 C 785.909 178.562 785.891 177.206 785.871 175.849 C 785.824 172.305 785.794 168.761 785.768 165.216 C 785.738 161.589 785.691 157.963 785.646 154.336 C 785.561 147.238 785.493 140.141 785.437 133.043 C 784.509 133.043 783.581 133.043 782.625 133.043 C 777.949 133.043 774.208 132.725 769.437 132.043 C 769.437 123.463 769.437 114.883 769.437 106.043 C 774.717 106.043 779.997 106.043 785.437 106.043 C 785.767 95.813 786.097 85.583 786.437 75.043 Z" style="fill: rgb(0, 120, 212);"/>
  <path d="M 754.437 62.043 C 756.77 62.001 759.104 62.002 761.437 62.043 C 762.437 63.043 762.437 63.043 762.56 65.556 C 762.559 67.247 762.559 67.247 762.558 68.972 C 762.559 70.26 762.56 71.549 762.562 72.877 C 762.558 74.319 762.555 75.76 762.551 77.201 C 762.551 78.709 762.551 80.217 762.551 81.724 C 762.552 85.829 762.546 89.934 762.539 94.04 C 762.533 98.325 762.532 102.611 762.531 106.896 C 762.528 115.017 762.519 123.138 762.509 131.259 C 762.498 140.501 762.493 149.744 762.488 158.987 C 762.477 178.006 762.459 197.024 762.437 216.043 C 752.537 216.043 742.637 216.043 732.437 216.043 C 732.295 210.971 732.152 205.899 732.01 200.827 C 731.962 199.101 731.913 197.376 731.865 195.65 C 731.795 193.17 731.725 190.691 731.656 188.211 C 731.634 187.439 731.612 186.667 731.59 185.872 C 731.508 182.928 731.437 179.988 731.437 177.043 C 731.107 176.053 730.777 175.063 730.437 174.043 C 730.312 170.418 730.312 170.418 730.437 167.043 C 730.932 166.548 730.932 166.548 731.437 166.043 C 731.538 163.726 731.568 161.405 731.57 159.086 C 731.571 158.387 731.572 157.687 731.573 156.967 C 731.574 155.483 731.572 153.999 731.568 152.515 C 731.562 150.25 731.568 147.986 731.574 145.721 C 731.573 144.28 731.572 142.839 731.57 141.398 C 731.569 140.085 731.568 138.772 731.567 137.419 C 731.461 134.666 731.102 132.661 730.437 130.043 C 730.356 127.799 730.33 125.554 730.34 123.309 C 730.343 122.013 730.346 120.718 730.35 119.383 C 730.358 118.02 730.366 116.656 730.375 115.293 C 730.38 113.914 730.384 112.535 730.389 111.156 C 730.4 107.785 730.417 104.414 730.437 101.043 C 730.767 101.043 731.097 101.043 731.437 101.043 C 731.414 99.476 731.414 99.476 731.39 97.878 C 731.336 94.003 731.301 90.129 731.273 86.254 C 731.258 84.577 731.237 82.9 731.211 81.223 C 731.175 78.813 731.158 76.403 731.144 73.992 C 731.129 73.242 731.113 72.492 731.098 71.719 C 731.097 68.783 731.1 66.59 732.664 64.051 C 734.994 62.727 736.44 62.782 739.105 62.969 C 739.998 63.024 740.891 63.078 741.81 63.135 C 743.204 63.244 743.204 63.244 744.625 63.356 C 745.565 63.417 746.506 63.478 747.475 63.541 C 749.797 63.694 752.117 63.862 754.437 64.043 C 754.437 63.383 754.437 62.723 754.437 62.043 Z M 755.437 63.043 C 755.437 63.373 755.437 63.703 755.437 64.043 C 757.417 64.043 759.397 64.043 761.437 64.043 C 761.437 63.713 761.437 63.383 761.437 63.043 C 759.457 63.043 757.477 63.043 755.437 63.043 Z M 731.437 111.043 C 732.437 114.043 732.437 114.043 732.437 114.043 L 731.437 111.043 Z M 731.437 115.043 C 732.437 118.043 732.437 118.043 732.437 118.043 L 731.437 115.043 Z M 731.437 119.043 C 731.437 121.353 731.437 123.663 731.437 126.043 C 731.767 126.043 732.097 126.043 732.437 126.043 C 732.437 123.733 732.437 121.423 732.437 119.043 C 732.107 119.043 731.777 119.043 731.437 119.043 Z M 731.437 127.043 C 732.437 130.043 732.437 130.043 732.437 130.043 L 731.437 127.043 Z M 731.437 167.043 C 732.437 170.043 732.437 170.043 732.437 170.043 L 731.437 167.043 Z M 731.437 171.043 C 732.437 174.043 732.437 174.043 732.437 174.043 L 731.437 171.043 Z" style="fill: rgb(0, 120, 212);"/>
  <path d="M0 0 C0.99 0.33 1.98 0.66 3 1 C2.01 1 1.02 1 0 1 C0 0.67 0 0.34 0 0 Z " fill="#48ACEC" transform="translate(179,646)"/>
  <path d="M0 0 C3 1 3 1 3 1 Z " fill="#4AA8E6" transform="translate(201,653)"/>
  <path d="" fill="#45AAF3" transform="translate(0,0)"/>
  <path d="" fill="#4AACF2" transform="translate(0,0)"/>
  <path d="" fill="#49ACF3" transform="translate(0,0)"/>
  <path d="" fill="#47ABF2" transform="translate(0,0)"/>
  <path d="" fill="#45ABF4" transform="translate(0,0)"/>
  <path d="" fill="#46A9F2" transform="translate(0,0)"/>
  <path d="" fill="#43A9F5" transform="translate(0,0)"/>
  <path d="" fill="#44A8F1" transform="translate(0,0)"/>
  <path d="" fill="#48ACF6" transform="translate(0,0)"/>
  <path d="" fill="#46AAF3" transform="translate(0,0)"/>
  <path d="" fill="#46AAF4" transform="translate(0,0)"/>
  <path d="" fill="#4AACF6" transform="translate(0,0)"/>
  <path d="" fill="#48AFF6" transform="translate(0,0)"/>
  <path d="" fill="#43AAF3" transform="translate(0,0)"/>
  <path d="" fill="#45AAF3" transform="translate(0,0)"/>
  <path d="" fill="#4EACEB" transform="translate(0,0)"/>
  <path d="" fill="#4EABE3" transform="translate(0,0)"/>
  <path d="M0 0 C2 1 2 1 2 1 Z " fill="#4BA9E3" transform="translate(207,653)"/>
  <path d="" fill="#46A9EA" transform="translate(0,0)"/>
  <path d="" fill="#48A9EF" transform="translate(0,0)"/>
  <path d="" fill="#45AAF1" transform="translate(0,0)"/>
  <path d="" fill="#4DA9E7" transform="translate(0,0)"/>
  <path d="" fill="#42A6EE" transform="translate(0,0)"/>
  <path d="" fill="#48AAE7" transform="translate(0,0)"/>
  <path d="" fill="#45A8F0" transform="translate(0,0)"/>
  <path d="" fill="#47AAF1" transform="translate(0,0)"/>
  <path d="" fill="#44A7F2" transform="translate(0,0)"/>
  <path d="" fill="#47AAF2" transform="translate(0,0)"/>
  <path d="" fill="#47AEF3" transform="translate(0,0)"/>
  <path d="" fill="#46ADF5" transform="translate(0,0)"/>
  <path d="" fill="#47ABF6" transform="translate(0,0)"/>
  <path d="" fill="#42A8F3" transform="translate(0,0)"/>
  <path d="" fill="#4AADF7" transform="translate(0,0)"/>
  <path d="" fill="#45ACF6" transform="translate(0,0)"/>
  <path d="" fill="#46ACF5" transform="translate(0,0)"/>
  <path d="" fill="#45ABF7" transform="translate(0,0)"/>
  <path d="" fill="#46A9F5" transform="translate(0,0)"/>
  <path d="" fill="#46ACF5" transform="translate(0,0)"/>
  <path d="" fill="#48ACF5" transform="translate(0,0)"/>
  <path d="" fill="#47ABF7" transform="translate(0,0)"/>
  <path d="" fill="#48AAF4" transform="translate(0,0)"/>
  <path d="" fill="#44ABF4" transform="translate(0,0)"/>
  <path d="" fill="#45AAF5" transform="translate(0,0)"/>
  <path d="" fill="#48A9E8" transform="translate(0,0)"/>
  <path d="" fill="#40A8F4" transform="translate(0,0)"/>
  <path d="" fill="#48ABF2" transform="translate(0,0)"/>
  <path d="" fill="#46AAF1" transform="translate(0,0)"/>
  <path d="" fill="#4CA7E4" transform="translate(0,0)"/>
  <path d="" fill="#48A9F1" transform="translate(0,0)"/>
  <path d="" fill="#49ABF2" transform="translate(0,0)"/>
  <path d="" fill="#47ABF2" transform="translate(0,0)"/>
  <path d="" fill="#46ADF7" transform="translate(0,0)"/>
  <path d="" fill="#46ABF8" transform="translate(0,0)"/>
  <path d="" fill="#49ACF2" transform="translate(0,0)"/>
  <path d="" fill="#5A8E75" transform="translate(0,0)"/>
  <path d="" fill="#598C75" transform="translate(0,0)"/>
  <path d="" fill="#4CA9E3" transform="translate(0,0)"/>
  <path d="" fill="#4CAAE5" transform="translate(0,0)"/>
  <path d="" fill="#4BA9E5" transform="translate(0,0)"/>
  <path d="" fill="#4CA8E5" transform="translate(0,0)"/>
  <path d="" fill="#49A9E6" transform="translate(0,0)"/>
  <path d="" fill="#51ACE3" transform="translate(0,0)"/>
  <path d="" fill="#48ABE9" transform="translate(0,0)"/>
  <path d="" fill="#48A9EB" transform="translate(0,0)"/>
  <path d="" fill="#47ACEC" transform="translate(0,0)"/>
  <path d="" fill="#47A8ED" transform="translate(0,0)"/>
  <path d="" fill="#50ADE9" transform="translate(0,0)"/>
  <path d="" fill="#45A7EA" transform="translate(0,0)"/>
  <path d="" fill="#49AAEC" transform="translate(0,0)"/>
  <path d="" fill="#49A9EB" transform="translate(0,0)"/>
  <path d="" fill="#4AABF2" transform="translate(0,0)"/>
  <path d="" fill="#44ACF6" transform="translate(0,0)"/>
  <path d="" fill="#47AAF4" transform="translate(0,0)"/>
  <path d="" fill="#47ACF3" transform="translate(0,0)"/>
  <path d="" fill="#48A9EF" transform="translate(0,0)"/>
  <path d="" fill="#46AAF1" transform="translate(0,0)"/>
  <path d="" fill="#44A7F8" transform="translate(0,0)"/>
  <path d="" fill="#49ACF4" transform="translate(0,0)"/>
  <path d="" fill="#49ADF3" transform="translate(0,0)"/>
  <path d="" fill="#47AEF3" transform="translate(0,0)"/>
  <path d="" fill="#43A8F4" transform="translate(0,0)"/>
  <path d="" fill="#46AAF7" transform="translate(0,0)"/>
  <path d="" fill="#44ABF5" transform="translate(0,0)"/>
  <path d="" fill="#4FABEA" transform="translate(0,0)"/>
  <path d="" fill="#4FAEEF" transform="translate(0,0)"/>
  <path d="" fill="#4AA8F0" transform="translate(0,0)"/>
  <path d="" fill="#41A9F3" transform="translate(0,0)"/>
  <path d="" fill="#46AAF2" transform="translate(0,0)"/>
  <path d="" fill="#46AEF5" transform="translate(0,0)"/>
  <path d="" fill="#4DAAEB" transform="translate(0,0)"/>
  <path d="" fill="#43A8F2" transform="translate(0,0)"/>
  <path d="" fill="#46A8E9" transform="translate(0,0)"/>
  <path d="" fill="#4AABE8" transform="translate(0,0)"/>
  <path d="" fill="#4AADF2" transform="translate(0,0)"/>
  <path d="" fill="#4AACF0" transform="translate(0,0)"/>
  <path d="" fill="#47AAED" transform="translate(0,0)"/>
  <path d="" fill="#4AA7ED" transform="translate(0,0)"/>
  <path d="" fill="#49A9ED" transform="translate(0,0)"/>
  <path d="" fill="#4AB0F4" transform="translate(0,0)"/>
  <path d="" fill="#4AABF1" transform="translate(0,0)"/>
  <path d="" fill="#4EA9DA" transform="translate(0,0)"/>
  <path d="" fill="#4AA9E7" transform="translate(0,0)"/>
  <path d="" fill="#49A9EE" transform="translate(0,0)"/>
  <path d="" fill="#4CACED" transform="translate(0,0)"/>
  <path d="" fill="#47ABF1" transform="translate(0,0)"/>
  <path d="" fill="#44A9F2" transform="translate(0,0)"/>
  <path d="" fill="#49AAEF" transform="translate(0,0)"/>
  <path d="" fill="#48ADF1" transform="translate(0,0)"/>
  <path d="" fill="#4EA5DA" transform="translate(0,0)"/>
  <path d="" fill="#48ABE9" transform="translate(0,0)"/>
  <path d="" fill="#4BABEB" transform="translate(0,0)"/>
  <path d="" fill="#4EADEA" transform="translate(0,0)"/>
  <path d="" fill="#4DABE9" transform="translate(0,0)"/>
  <path d="" fill="#4FAAEA" transform="translate(0,0)"/>
  <path d="" fill="#4FACEA" transform="translate(0,0)"/>
  <path d="" fill="#4DACE9" transform="translate(0,0)"/>
  <path d="" fill="#4BABEF" transform="translate(0,0)"/>
  <path d="" fill="#4EAAE9" transform="translate(0,0)"/>
  <path d="" fill="#44A7F2" transform="translate(0,0)"/>
  <path d="" fill="#47A9F4" transform="translate(0,0)"/>
  <path d="" fill="#43A8F2" transform="translate(0,0)"/>
  <path d="" fill="#47AAF0" transform="translate(0,0)"/>
  <path d="" fill="#4BACF2" transform="translate(0,0)"/>
  <path d="" fill="#48AAF6" transform="translate(0,0)"/>
  <path d="" fill="#49ACF2" transform="translate(0,0)"/>
  <path d="" fill="#46ABF3" transform="translate(0,0)"/>
  <path d="" fill="#48AFF9" transform="translate(0,0)"/>
  <path d="" fill="#46A9F1" transform="translate(0,0)"/>
  <path d="" fill="#46A9F1" transform="translate(0,0)"/>
  <path d="" fill="#43ABEF" transform="translate(0,0)"/>
  <path d="" fill="#46A7F0" transform="translate(0,0)"/>
  <path d="" fill="#47ACF2" transform="translate(0,0)"/>
  <path d="" fill="#48A7EF" transform="translate(0,0)"/>
  <path d="" fill="#44ABEE" transform="translate(0,0)"/>
  <path d="" fill="#46AAF0" transform="translate(0,0)"/>
  <path d="" fill="#42A9F2" transform="translate(0,0)"/>
  <path d="" fill="#44AAF6" transform="translate(0,0)"/>
  <path d="" fill="#4FADEF" transform="translate(0,0)"/>
  <path d="" fill="#4AACF1" transform="translate(0,0)"/>
  <path d="" fill="#49ADF0" transform="translate(0,0)"/>
  <path d="" fill="#47AAED" transform="translate(0,0)"/>
  <path d="" fill="#44A8F8" transform="translate(0,0)"/>
  <path d="" fill="#46AAF0" transform="translate(0,0)"/>
  <path d="" fill="#4AA7EA" transform="translate(0,0)"/>
  <path d="" fill="#46AAF2" transform="translate(0,0)"/>
  <path d="" fill="#4BA9F0" transform="translate(0,0)"/>
  <path d="" fill="#49ABF1" transform="translate(0,0)"/>
  <path d="" fill="#4DB0F5" transform="translate(0,0)"/>
  <path d="" fill="#4AA9F1" transform="translate(0,0)"/>
  <path d="" fill="#44A8F2" transform="translate(0,0)"/>
  <path d="" fill="#48ABF4" transform="translate(0,0)"/>
  <path d="" fill="#48ABF2" transform="translate(0,0)"/>
  <path d="" fill="#4BAFF2" transform="translate(0,0)"/>
  <path d="" fill="#48AAF3" transform="translate(0,0)"/>
  <path d="" fill="#44A6F0" transform="translate(0,0)"/>
  <path d="" fill="#48B0F3" transform="translate(0,0)"/>
  <path d="" fill="#41AAF2" transform="translate(0,0)"/>
  <path d="" fill="#4AAEF6" transform="translate(0,0)"/>
  <path d="" fill="#45A8F3" transform="translate(0,0)"/>
  <path d="" fill="#4CADF1" transform="translate(0,0)"/>
  <path d="" fill="#44A7F4" transform="translate(0,0)"/>
  <path d="" fill="#40A4EA" transform="translate(0,0)"/>
  <path d="" fill="#4EAFEF" transform="translate(0,0)"/>
  <path d="" fill="#43A8F4" transform="translate(0,0)"/>
  <path d="" fill="#4DAFF8" transform="translate(0,0)"/>
  <path d="" fill="#46AAF2" transform="translate(0,0)"/>
  <path d="" fill="#44A8F0" transform="translate(0,0)"/>
  <path d="" fill="#45AAF3" transform="translate(0,0)"/>
  <path d="" fill="#48ACF7" transform="translate(0,0)"/>
  <path d="" fill="#44ACF8" transform="translate(0,0)"/>
  <path d="" fill="#4BAFF3" transform="translate(0,0)"/>
  <path d="" fill="#45AAF3" transform="translate(0,0)"/>
  <path d="" fill="#44AAF7" transform="translate(0,0)"/>
  <path d="" fill="#45ACF8" transform="translate(0,0)"/>
  <path d="" fill="#48ADF2" transform="translate(0,0)"/>
  <path d="" fill="#41A5F0" transform="translate(0,0)"/>
  <path d="" fill="#3EA4EC" transform="translate(0,0)"/>
  <path d="" fill="#46A8F2" transform="translate(0,0)"/>
  <path d="" fill="#45A7ED" transform="translate(0,0)"/>
  <path d="" fill="#43A9F0" transform="translate(0,0)"/>
  <path d="" fill="#42AAF7" transform="translate(0,0)"/>
  <path d="" fill="#4CB0F5" transform="translate(0,0)"/>
  <path d="" fill="#48AFF8" transform="translate(0,0)"/>
  <path d="" fill="#49ADF6" transform="translate(0,0)"/>
  <path d="" fill="#47ABF6" transform="translate(0,0)"/>
  <path d="" fill="#49AEF7" transform="translate(0,0)"/>
  <path d="" fill="#45ACF5" transform="translate(0,0)"/>
  <path d="" fill="#48ADF4" transform="translate(0,0)"/>
  <path d="" fill="#49AEF8" transform="translate(0,0)"/>
  <path d="" fill="#46ABF5" transform="translate(0,0)"/>
  <path d="" fill="#4DAEF4" transform="translate(0,0)"/>
  <path d="" fill="#42A6F8" transform="translate(0,0)"/>
  <path d="" fill="#4CACF3" transform="translate(0,0)"/>
  <path d="" fill="#42A9F7" transform="translate(0,0)"/>
  <path d="" fill="#49ABF4" transform="translate(0,0)"/>
  <path d="" fill="#44AAF4" transform="translate(0,0)"/>
  <path d="" fill="#4BAEF7" transform="translate(0,0)"/>
  <path d="" fill="#49AEF7" transform="translate(0,0)"/>
  <path d="" fill="#45ACF4" transform="translate(0,0)"/>
  <path d="" fill="#44A9F2" transform="translate(0,0)"/>
  <path d="" fill="#49ACF8" transform="translate(0,0)"/>
  <path d="" fill="#4BAAF2" transform="translate(0,0)"/>
  <path d="" fill="#49ACF8" transform="translate(0,0)"/>
  <path d="" fill="#45ABF9" transform="translate(0,0)"/>
  <path d="" fill="#4AADF7" transform="translate(0,0)"/>
  <path d="" fill="#44AAF2" transform="translate(0,0)"/>
  <path d="" fill="#4CB0F8" transform="translate(0,0)"/>
  <path d="" fill="#4EB1FA" transform="translate(0,0)"/>
  <path d="" fill="#43A8F6" transform="translate(0,0)"/>
  <path d="" fill="#44A9F0" transform="translate(0,0)"/>
  <path d="" fill="#47ABF5" transform="translate(0,0)"/>
  <path d="" fill="#46A9F3" transform="translate(0,0)"/>
  <path d="" fill="#4BB1F5" transform="translate(0,0)"/>
  <path d="" fill="#47AFF8" transform="translate(0,0)"/>
  <path d="" fill="#45A9F4" transform="translate(0,0)"/>
  <path d="" fill="#46ACF6" transform="translate(0,0)"/>
  <path d="" fill="#45ABF6" transform="translate(0,0)"/>
  <path d="" fill="#47ADF4" transform="translate(0,0)"/>
  <path d="" fill="#48ACF7" transform="translate(0,0)"/>
  <path d="" fill="#45AAF5" transform="translate(0,0)"/>
  <path d="" fill="#46AFF5" transform="translate(0,0)"/>
  <path d="" fill="#45A8F1" transform="translate(0,0)"/>
  <path d="" fill="#42A8F3" transform="translate(0,0)"/>
  <path d="" fill="#40AFF6" transform="translate(0,0)"/>
  <path d="" fill="#44ABF9" transform="translate(0,0)"/>
  <path d="" fill="#44AAF3" transform="translate(0,0)"/>
  <path d="" fill="#48ABF5" transform="translate(0,0)"/>
  <path d="" fill="#47ADF8" transform="translate(0,0)"/>
  <path d="" fill="#4AAEF7" transform="translate(0,0)"/>
  <path d="" fill="#47A8F3" transform="translate(0,0)"/>
  <path d="" fill="#46A6F3" transform="translate(0,0)"/>
  <path d="" fill="#4CABF4" transform="translate(0,0)"/>
  <path d="" fill="#4BACF5" transform="translate(0,0)"/>
  <path d="" fill="#4AABF5" transform="translate(0,0)"/>
  <path d="" fill="#44AAF6" transform="translate(0,0)"/>
  <path d="" fill="#47AEF7" transform="translate(0,0)"/>
  <path d="" fill="#45A9F3" transform="translate(0,0)"/>
  <path d="" fill="#43A9F2" transform="translate(0,0)"/>
  <path d="" fill="#45A8F3" transform="translate(0,0)"/>
  <path d="" fill="#4DADF5" transform="translate(0,0)"/>
  <path d="" fill="#47ABF6" transform="translate(0,0)"/>
  <path d="" fill="#43A8F0" transform="translate(0,0)"/>
  <path d="" fill="#42ABF1" transform="translate(0,0)"/>
  <path d="" fill="#49AEF6" transform="translate(0,0)"/>
  <path d="" fill="#47ABF4" transform="translate(0,0)"/>
  <path d="" fill="#47ABF3" transform="translate(0,0)"/>
  <path d="" fill="#46AAF3" transform="translate(0,0)"/>
  <path d="" fill="#47ABF7" transform="translate(0,0)"/>
  <path d="" fill="#46AFF5" transform="translate(0,0)"/>
  <path d="" fill="#4BAAF3" transform="translate(0,0)"/>
  <path d="" fill="#47A8F6" transform="translate(0,0)"/>
  <path d="" fill="#45ABF8" transform="translate(0,0)"/>
  <path d="" fill="#47ADFB" transform="translate(0,0)"/>
  <path d="" fill="#47AFFB" transform="translate(0,0)"/>
  <path d="" fill="#47ACFA" transform="translate(0,0)"/>
  <path d="" fill="#46ACFB" transform="translate(0,0)"/>
  <path d="" fill="#46AFF9" transform="translate(0,0)"/>
  <path d="" fill="#45ACF8" transform="translate(0,0)"/>
  <path d="" fill="#46B0FC" transform="translate(0,0)"/>
  <path d="" fill="#49ACF3" transform="translate(0,0)"/>
  <path d="" fill="#49AAF4" transform="translate(0,0)"/>
  <path d="" fill="#47A9F3" transform="translate(0,0)"/>
  <path d="" fill="#46A6F1" transform="translate(0,0)"/>
  <path d="" fill="#49ACF3" transform="translate(0,0)"/>
  <path d="" fill="#4AAAE5" transform="translate(0,0)"/>
  <path d="" fill="#47AAF2" transform="translate(0,0)"/>
  <path d="" fill="#49A8F1" transform="translate(0,0)"/>
  <path d="" fill="#49B0F3" transform="translate(0,0)"/>
  <path d="" fill="#47AAF2" transform="translate(0,0)"/>
  <path d="" fill="#4AACF2" transform="translate(0,0)"/>
  <path d="" fill="#43ACF8" transform="translate(0,0)"/>
  <path d="" fill="#49A7E3" transform="translate(0,0)"/>
  <path d="" fill="#46ABF2" transform="translate(0,0)"/>
  <path d="" fill="#43A6EF" transform="translate(0,0)"/>
  <path d="" fill="#45AAF1" transform="translate(0,0)"/>
  <path d="" fill="#48ABF4" transform="translate(0,0)"/>
  <path d="" fill="#47A7EF" transform="translate(0,0)"/>
  <path d="" fill="#46A9F4" transform="translate(0,0)"/>
  <path d="" fill="#42B1F4" transform="translate(0,0)"/>
  <path d="" fill="#44ADF8" transform="translate(0,0)"/>
  <path d="" fill="#48ACEF" transform="translate(0,0)"/>
  <path d="" fill="#48ABEF" transform="translate(0,0)"/>
  <path d="" fill="#4BA9EF" transform="translate(0,0)"/>
  <path d="" fill="#45A8F2" transform="translate(0,0)"/>
  <path d="" fill="#4AACEE" transform="translate(0,0)"/>
  <path d="" fill="#49AEF5" transform="translate(0,0)"/>
  <path d="" fill="#49ACF4" transform="translate(0,0)"/>
  <path d="" fill="#4AAFF6" transform="translate(0,0)"/>
  <path d="" fill="#4AABF2" transform="translate(0,0)"/>
  <path d="" fill="#4CACF0" transform="translate(0,0)"/>
  <path d="" fill="#4CACF3" transform="translate(0,0)"/>
  <path d="" fill="#49ABF3" transform="translate(0,0)"/>
  <path d="" fill="#48ADF5" transform="translate(0,0)"/>
  <path d="" fill="#48A9F5" transform="translate(0,0)"/>
  <path d="" fill="#49AFF5" transform="translate(0,0)"/>
  <path d="" fill="#48A9EF" transform="translate(0,0)"/>
  <path d="" fill="#4AAFF3" transform="translate(0,0)"/>
  <path d="" fill="#49ADF5" transform="translate(0,0)"/>
  <path d="" fill="#4DB1F9" transform="translate(0,0)"/>
  <path d="" fill="#4AA8ED" transform="translate(0,0)"/>
  <path d="" fill="#49AEF2" transform="translate(0,0)"/>
  <path d="" fill="#4BB1F5" transform="translate(0,0)"/>
  <path d="" fill="#4CAEF6" transform="translate(0,0)"/>
  <path d="" fill="#49ADF6" transform="translate(0,0)"/>
  <path d="" fill="#4BAFF6" transform="translate(0,0)"/>
  <path d="" fill="#48AFF4" transform="translate(0,0)"/>
  <path d="" fill="#4AABF1" transform="translate(0,0)"/>
  <path d="" fill="#48ABF1" transform="translate(0,0)"/>
  <path d="" fill="#48ABF1" transform="translate(0,0)"/>
  <path d="" fill="#48AAF0" transform="translate(0,0)"/>
  <path d="" fill="#46ACF6" transform="translate(0,0)"/>
  <path d="" fill="#4BACF3" transform="translate(0,0)"/>
  <path d="" fill="#49ABF0" transform="translate(0,0)"/>
  <path d="" fill="#47ABF3" transform="translate(0,0)"/>
  <path d="" fill="#49AAF4" transform="translate(0,0)"/>
  <path d="" fill="#48A9F2" transform="translate(0,0)"/>
  <path d="" fill="#49AAF1" transform="translate(0,0)"/>
  <path d="" fill="#49ACF0" transform="translate(0,0)"/>
  <path d="" fill="#47AFF4" transform="translate(0,0)"/>
  <path d="" fill="#4AB0F4" transform="translate(0,0)"/>
  <path d="" fill="#4AACF0" transform="translate(0,0)"/>
  <path d="" fill="#4AAAEE" transform="translate(0,0)"/>
  <path d="" fill="#4AACEC" transform="translate(0,0)"/>
  <path d="" fill="#4AAFF7" transform="translate(0,0)"/>
  <path d="" fill="#47ADF3" transform="translate(0,0)"/>
  <path d="" fill="#46ACF2" transform="translate(0,0)"/>
  <path d="" fill="#48ACF2" transform="translate(0,0)"/>
  <path d="" fill="#4CABF2" transform="translate(0,0)"/>
  <path d="" fill="#4DAEEF" transform="translate(0,0)"/>
  <path d="" fill="#48AEF5" transform="translate(0,0)"/>
  <path d="" fill="#48B7F9" transform="translate(0,0)"/>
  <path d="" fill="#47B3F8" transform="translate(0,0)"/>
  <path d="" fill="#46B4F7" transform="translate(0,0)"/>
  <path d="" fill="#46B4F7" transform="translate(0,0)"/>
  <path d="" fill="#46B4F8" transform="translate(0,0)"/>
  <path d="" fill="#43B4F4" transform="translate(0,0)"/>
  <path d="" fill="#47AEF7" transform="translate(0,0)"/>
  <path d="" fill="#4FB0E8" transform="translate(0,0)"/>
  <path d="" fill="#50ADE8" transform="translate(0,0)"/>
  <path d="" fill="#4BABE9" transform="translate(0,0)"/>
  <path d="" fill="#4BACEB" transform="translate(0,0)"/>
  <path d="" fill="#4BABEB" transform="translate(0,0)"/>
  <path d="" fill="#4DA8E6" transform="translate(0,0)"/>
  <path d="" fill="#4AAFF4" transform="translate(0,0)"/>
  <path d="" fill="#4CABF3" transform="translate(0,0)"/>
  <path d="" fill="#4AAFED" transform="translate(0,0)"/>
  <path d="" fill="#44ACF7" transform="translate(0,0)"/>
  <path d="" fill="#4FADF0" transform="translate(0,0)"/>
  <path d="" fill="#45A6F5" transform="translate(0,0)"/>
  <path d="" fill="#49A7E4" transform="translate(0,0)"/>
  <path d="" fill="#4AB1EE" transform="translate(0,0)"/>
  <path d="" fill="#47ACF0" transform="translate(0,0)"/>
  <path d="" fill="#4CACF3" transform="translate(0,0)"/>
  <path d="" fill="#48B2F9" transform="translate(0,0)"/>
  <path d="" fill="#4AADF2" transform="translate(0,0)"/>
  <path d="" fill="#45AEFA" transform="translate(0,0)"/>
  <path d="" fill="#46A8F6" transform="translate(0,0)"/>
  <path d="" fill="#46ADF8" transform="translate(0,0)"/>
  <path d="" fill="#43AAF7" transform="translate(0,0)"/>
  <path d="" fill="#45A9F2" transform="translate(0,0)"/>
  <path d="" fill="#42A6F3" transform="translate(0,0)"/>
  <path d="" fill="#45AAF3" transform="translate(0,0)"/>
  <path d="" fill="#49ACF2" transform="translate(0,0)"/>
  <path d="" fill="#42A9ED" transform="translate(0,0)"/>
  <path d="" fill="#4BABED" transform="translate(0,0)"/>
  <path d="" fill="#46ACF6" transform="translate(0,0)"/>
  <path d="" fill="#45AAF5" transform="translate(0,0)"/>
  <path d="" fill="#47AAF5" transform="translate(0,0)"/>
  <path d="" fill="#49ACF5" transform="translate(0,0)"/>
  <path d="" fill="#49ABEE" transform="translate(0,0)"/>
  <path d="" fill="#49ACED" transform="translate(0,0)"/>
  <path d="" fill="#48AAEB" transform="translate(0,0)"/>
  <path d="" fill="#4BAEF0" transform="translate(0,0)"/>
  <path d="" fill="#4CABEC" transform="translate(0,0)"/>
  <path d="" fill="#4DADED" transform="translate(0,0)"/>
  <path d="" fill="#4DACEB" transform="translate(0,0)"/>
  <path d="" fill="#45A6EF" transform="translate(0,0)"/>
  <path d="" fill="#4CADEE" transform="translate(0,0)"/>
  <path d="" fill="#49ACF2" transform="translate(0,0)"/>
  <path d="" fill="#4CADF1" transform="translate(0,0)"/>
  <path d="" fill="#4AADF0" transform="translate(0,0)"/>
  <path d="" fill="#4BADF2" transform="translate(0,0)"/>
  <path d="" fill="#609583" transform="translate(0,0)"/>
  <path d="" fill="#50816A" transform="translate(0,0)"/>
  <path d="" fill="#5B8C76" transform="translate(0,0)"/>
</svg>